<svg version="1.1" id="Layer_1" xmlns="http://www.w3.org/2000/svg" 
     xmlns:xlink="http://www.w3.org/1999/xlink" 
     x="0px" y="0px" width="100%" 
     viewBox="0 0 336 336" enable-background="new 0 0 336 336" xml:space="preserve">

  <!-- Dark Neon Gradient -->
  <defs>
    <linearGradient id="gradDark" x1="0%" y1="0%" x2="100%" y2="100%">
      <stop offset="0%"   style="stop-color:#03fe86; stop-opacity:1" />   <!-- Neon Green highlight -->
      <stop offset="25%"  style="stop-color:#029e63; stop-opacity:1" />   <!-- Deep Emerald -->
      <stop offset="60%"  style="stop-color:#014d36; stop-opacity:1" />   <!-- Dark Forest Green -->
      <stop offset="100%" style="stop-color:#00140c; stop-opacity:1" />   <!-- Almost Black -->
    </linearGradient>
  </defs>

  <!-- Path using dark gradient -->
  <path fill="url(#gradDark)" opacity="1.0" stroke="none" d="
M257.764282,49.023273 
	C279.042145,51.265102 294.113770,61.618885 300.774384,81.662277 
	C307.392395,101.577415 302.709320,119.213989 287.429810,134.139069 
	C259.665344,161.259476 232.203766,188.689896 204.602676,215.977676 
	C202.116074,218.436066 199.409714,220.681610 197.024689,223.231140 
	C193.027954,227.503555 192.790039,232.736694 196.208511,236.238724 
	C199.668625,239.783386 204.835724,239.758759 209.186737,235.754517 
	C213.595154,231.697479 217.620209,227.227188 221.951355,223.082275 
	C235.629684,209.992203 251.964691,206.778534 269.655182,211.860260 
	C287.845520,217.085526 298.997131,229.634277 302.941223,248.208801 
	C307.273773,268.612549 297.066589,290.519043 278.868988,300.440338 
	C259.896881,310.783966 237.021591,307.687042 221.694214,292.553345 
	C210.314178,281.317108 199.135193,269.877136 187.744736,258.651672 
	C179.163712,250.194962 168.457199,250.302368 159.872421,258.822205 
	C148.519150,270.089569 137.283966,281.475922 125.935860,292.748566 
	C112.016136,306.575745 91.596588,310.335999 73.220436,302.552002 
	C55.624081,295.098297 44.948544,278.287781 44.496822,258.847076 
	C44.151173,243.971527 49.730568,232.354248 60.291073,222.085297 
	C90.620430,192.593231 120.555092,162.695038 150.613586,132.924850 
	C155.433289,128.151367 155.905121,123.236031 152.164230,119.303177 
	C148.448364,115.396622 142.831360,115.850868 138.034470,120.575584 
	C134.117813,124.433304 130.421600,128.518417 126.444054,132.310120 
	C112.354843,145.741074 95.744858,149.121765 77.485664,143.378326 
	C59.117546,137.600601 47.886814,124.518211 45.068222,105.738754 
	C41.687420,83.213478 50.529110,65.019714 69.981819,54.541634 
	C88.693153,44.462891 110.400230,47.898598 126.138588,63.163803 
	C136.660873,73.369743 146.826141,83.942902 157.207184,94.295578 
	C169.124146,106.179977 178.402557,106.118034 190.135696,94.275902 
	C200.220459,84.097443 210.436829,74.048790 220.475204,63.825123 
	C230.623627,53.489361 242.839127,48.502762 257.764282,49.023273 
z"/>
</svg>
